<svg width="164" height="77" viewBox="0 0 164 77" fill="none" xmlns="http://www.w3.org/2000/svg">
<path d="M141.642 75.951H104.075C103.772 75.951 103.621 75.7761 103.621 75.4264L103.734 1.73093C103.734 1.38124 103.923 1.2064 104.302 1.2064H117.24C117.618 1.2064 117.808 1.38124 117.808 1.73093L117.694 62.733H141.642C142.02 62.733 142.209 62.9078 142.209 63.2575V75.4264C142.209 75.7761 142.02 75.951 141.642 75.951Z" fill="#F3F3F3"/>
<path d="M163.546 75.951H150.381C150.002 75.951 149.813 75.7761 149.813 75.4264L149.927 1.62602C149.927 1.34628 150.078 1.2064 150.381 1.2064H163.433C163.735 1.2064 163.887 1.34628 163.887 1.62602L164 75.4264C164 75.7761 163.849 75.951 163.546 75.951Z" fill="#F3F3F3"/>
<path d="M22.7557 77C18.5564 77 14.7165 76.0209 11.236 74.0627C7.79331 72.1044 5.05052 69.4818 3.00761 66.1948C1.00254 62.8728 0 59.1837 0 55.1274L0.113495 21.6104C0.113495 17.624 1.09712 14.0223 3.06436 10.8052C5.0316 7.55313 7.73656 4.948 11.1792 2.98978C14.6597 0.996594 18.5186 0 22.7557 0C27.0685 0 30.9084 0.961626 34.2754 2.88488C37.6803 4.80813 40.3852 7.41326 42.3903 10.7003C44.4332 13.9523 45.4547 17.589 45.4547 21.6104H31.4948C31.4948 19.2325 30.6625 17.1869 28.9979 15.4734C27.3333 13.76 25.2526 12.9033 22.7557 12.9033C19.994 12.9033 17.8754 13.7775 16.4 15.5259C14.9246 17.2743 14.1869 19.3025 14.1869 21.6104V55.1274C14.1869 57.75 15.0191 59.9005 16.6837 61.579C18.3483 63.2225 20.3723 64.0443 22.7557 64.0443C25.2526 64.0443 27.3333 63.1351 28.9979 61.3168C30.6625 59.4634 31.4948 57.4003 31.4948 55.1274H45.5682C45.5682 59.1487 44.5467 62.8204 42.5038 66.1424C40.4231 69.4294 37.6803 72.0695 34.2754 74.0627C30.8706 76.0209 27.0307 77 22.7557 77Z" fill="#F3F3F3"/>
<path fill-rule="evenodd" clip-rule="evenodd" d="M50.108 75.4264L64.5218 1.62602C64.5975 1.34628 64.7866 1.2064 65.0893 1.2064H81.9433C82.2459 1.2064 82.4351 1.34628 82.5107 1.62602L96.3571 75.4264C96.3949 75.7761 96.2436 75.951 95.9031 75.951H83.0215C82.6431 75.951 82.4351 75.7761 82.3972 75.4264L81.1488 67.5586H65.3163L64.0678 75.4264C64.03 75.7761 63.8408 75.951 63.5003 75.951H50.5619C50.2593 75.951 50.108 75.7761 50.108 75.4264ZM73.3744 21.9251L74.0554 25.9114L78.8221 56.0715H67.6429L72.8637 25.9114L73.3744 21.9251Z" fill="#F3F3F3"/>
</svg>
