<svg width="129" height="202" viewBox="0 0 129 202" fill="none" xmlns="http://www.w3.org/2000/svg">
<path d="M1 101C1.00001 127.522 12.244 152.957 32.2584 171.711C35.7935 175.023 39.5511 178.079 43.4983 180.866C61.8983 193.857 84.4175 201 107.723 201H128V180.866H107.723C85.1169 180.866 63.437 172.452 47.4522 157.474C31.4675 142.496 22.4874 122.182 22.4874 101C22.4874 79.8182 31.4675 59.5039 47.4522 44.5261C63.4369 29.5483 85.1168 21.1339 107.723 21.1338L107.723 1C79.418 1.00001 52.2727 11.5357 32.2583 30.2893C12.2439 49.043 0.999994 74.4784 1 101Z" fill="#888A8F"/>
<path d="M107.723 1C79.418 1.00001 52.2727 11.5357 32.2583 30.2893C12.2439 49.043 0.999994 74.4784 1 101C1.00001 127.522 12.244 152.957 32.2584 171.711C35.7935 175.023 39.5511 178.079 43.4983 180.866M107.723 1L107.723 21.1338M107.723 1H128V180.866M107.723 21.1338C85.1168 21.1339 63.4369 29.5483 47.4522 44.5261C31.4675 59.5039 22.4874 79.8182 22.4874 101C22.4874 122.182 31.4675 142.496 47.4522 157.474C63.4369 172.452 85.1169 180.866 107.723 180.866M107.723 21.1338L107.723 180.866M107.723 180.866H128M128 201H1V180.866H43.4983M128 201V180.866M128 201H107.723C84.4175 201 61.8983 193.857 43.4983 180.866" stroke="#888A8F" stroke-width="2"/>
</svg>
